# xmcd
#
# Track frame offsets:
#  150
#  19599
#  51391
#  67176
#  103441
#  147494
#  170175
#  180791
#
# Disc length: 2599 seconds
#
# Revision: 1
# Processed by: cddbd v1.5.1PL0 Copyright (c) Steve Scherf et al.
# Submitted via: Collectorz.com Music Collector 6.9
#
DISCID=780a2508
DTITLE=robert earl keen - 1994-12-04 San Francisco, Ca - Disc 2
DYEAR=1994
DGENRE=
TTITLE0=Mariano
TTITLE1=Goin' Down In Style - Rancho Grande
TTITLE2=I'm Comin' Home
TTITLE3=Dreadful Selfish Crime
TTITLE4=The Road Goes On Forever
TTITLE5=Lonely Feelin'
TTITLE6=Amarillo Highway
TTITLE7=If I Were King
EXTD=
EXTT0=
EXTT1=
EXTT2=
EXTT3=
EXTT4=
EXTT5=
EXTT6=
EXTT7=
PLAYORDER=
